<svg xmlns="http://www.w3.org/2000/svg" xmlns:xlink="http://www.w3.org/1999/xlink" version="1.1" height="100" viewBox="0 0 256 256" xml:space="preserve">

<defs>
</defs>
<g style="stroke: none; stroke-width: 0; stroke-dasharray: none; stroke-linecap: butt; stroke-linejoin: miter; stroke-miterlimit: 10; fill: none; fill-rule: nonzero; opacity: 1;" transform="translate(1.4065934065934016 1.4065934065934016) scale(2.81 2.81)" >
	<path d="M 6.691 61.542 v 8.677 c 0 2.953 2.285 5.369 5.077 5.369 h 5.807 c 2.792 0 5.077 -2.416 5.077 -5.369 v -6.546 L 6.691 61.542 z" style="stroke: none; stroke-width: 1; stroke-dasharray: none; stroke-linecap: butt; stroke-linejoin: miter; stroke-miterlimit: 10; fill: rgb(76,76,85); fill-rule: nonzero; opacity: 1;" transform=" matrix(1 0 0 1 0 0) " stroke-linecap="round" />
	<path d="M 83.309 61.542 v 8.677 c 0 2.953 -2.285 5.369 -5.077 5.369 h -5.807 c -2.792 0 -5.077 -2.416 -5.077 -5.369 v -6.546 L 83.309 61.542 z" style="stroke: none; stroke-width: 1; stroke-dasharray: none; stroke-linecap: butt; stroke-linejoin: miter; stroke-miterlimit: 10; fill: rgb(76,76,85); fill-rule: nonzero; opacity: 1;" transform=" matrix(1 0 0 1 0 0) " stroke-linecap="round" />
	<path d="M 75.328 29.853 c 1.327 4.362 4.063 7.052 8.478 7.747 l 2.413 -4.433 c 0.802 -1.474 -0.204 -3.313 -1.812 -3.313 H 75.328" style="stroke: none; stroke-width: 1; stroke-dasharray: none; stroke-linecap: butt; stroke-linejoin: miter; stroke-miterlimit: 10; fill: rgb(210,85,90); fill-rule: nonzero; opacity: 1;" transform=" matrix(1 0 0 1 0 0) " stroke-linecap="round" />
	<path d="M 14.672 29.853 c -1.021 3.845 -3.402 6.738 -8.478 7.747 L 3.78 33.166 c -0.802 -1.474 0.204 -3.313 1.812 -3.313 H 14.672" style="stroke: none; stroke-width: 1; stroke-dasharray: none; stroke-linecap: butt; stroke-linejoin: miter; stroke-miterlimit: 10; fill: rgb(210,85,90); fill-rule: nonzero; opacity: 1;" transform=" matrix(1 0 0 1 0 0) " stroke-linecap="round" />
	<path d="M 12.068 35.215 h 65.863 l -5.987 -12.331 c -2.526 -5.202 -7.591 -8.473 -13.12 -8.473 H 31.176 c -5.529 0 -10.594 3.271 -13.12 8.473 L 12.068 35.215 h 65.863" style="stroke: none; stroke-width: 1; stroke-dasharray: none; stroke-linecap: butt; stroke-linejoin: miter; stroke-miterlimit: 10; fill: rgb(199,207,226); fill-rule: nonzero; opacity: 1;" transform=" matrix(1 0 0 1 0 0) " stroke-linecap="round" />
	<path d="M 77.932 36.215 H 12.068 c -0.001 0 -0.002 0 -0.003 0 h 0 c -0.001 0 -0.002 0 -0.003 0 c 0 0 -0.001 0 -0.002 0 c -0.248 -0.002 -0.475 -0.095 -0.648 -0.246 c -0.034 -0.03 -0.066 -0.063 -0.097 -0.097 c -0.153 -0.176 -0.246 -0.406 -0.246 -0.657 c 0 -0.164 0.04 -0.319 0.109 -0.456 l 5.978 -12.312 c 2.707 -5.574 8.079 -9.036 14.02 -9.036 h 27.648 c 5.941 0 11.313 3.462 14.02 9.036 l 5.979 12.312 c 0.07 0.137 0.109 0.292 0.109 0.456 c 0 0.25 -0.092 0.479 -0.244 0.655 c -0.031 0.035 -0.064 0.068 -0.099 0.099 c -0.001 0 -0.001 0 -0.001 0.001 c 0 0 0 0 -0.001 0 c -0.173 0.151 -0.399 0.243 -0.646 0.245 c -0.001 0 -0.001 0 -0.002 0 c 0 0 -0.001 0 -0.003 0 c -0.001 0 -0.001 0 -0.001 0 C 77.934 36.215 77.933 36.215 77.932 36.215 z M 13.666 34.215 h 62.668 l -5.289 -10.894 c -2.369 -4.879 -7.052 -7.91 -12.221 -7.91 H 31.176 c -5.169 0 -9.852 3.031 -12.221 7.91 L 13.666 34.215 z" style="stroke: none; stroke-width: 1; stroke-dasharray: none; stroke-linecap: butt; stroke-linejoin: miter; stroke-miterlimit: 10; fill: rgb(255,139,139); fill-rule: nonzero; opacity: 1;" transform=" matrix(1 0 0 1 0 0) " stroke-linecap="round" />
	<path d="M 87.12 40.495 L 87.12 40.495 c -27.784 -2.848 -55.869 -2.789 -84.239 0 h 0 C 1.076 43.004 0 46.071 0 49.391 c 0 0.83 0.067 1.644 0.196 2.438 c 0.387 2.381 1.331 4.576 2.684 6.458 c 0.001 0 0.002 0 0.002 0 C 16.817 59.343 30.86 59.826 45 59.8 c 14.14 0.026 28.183 -0.457 42.117 -1.513 c 0.001 0 0.002 0 0.002 0 c 1.354 -1.882 2.297 -4.077 2.684 -6.458 C 89.933 51.035 90 50.221 90 49.391 C 90 46.071 88.924 43.004 87.12 40.495 z" style="stroke: none; stroke-width: 1; stroke-dasharray: none; stroke-linecap: butt; stroke-linejoin: miter; stroke-miterlimit: 10; fill: rgb(255,100,100); fill-rule: nonzero; opacity: 1;" transform=" matrix(1 0 0 1 0 0) " stroke-linecap="round" />
	<path d="M 2.88 58.286 c 2.777 3.86 7.295 6.388 12.403 6.388 h 59.434 c 5.107 0 9.626 -2.528 12.403 -6.388 H 2.88 z" style="stroke: none; stroke-width: 1; stroke-dasharray: none; stroke-linecap: butt; stroke-linejoin: miter; stroke-miterlimit: 10; fill: rgb(210,85,90); fill-rule: nonzero; opacity: 1;" transform=" matrix(1 0 0 1 0 0) " stroke-linecap="round" />
	<path d="M 21.108 53.968 h -7.783 c -2.658 0 -4.833 -2.175 -4.833 -4.833 v 0 c 0 -2.658 2.175 -4.833 4.833 -4.833 h 7.783 c 2.658 0 4.833 2.175 4.833 4.833 v 0 C 25.941 51.793 23.766 53.968 21.108 53.968 z" style="stroke: none; stroke-width: 1; stroke-dasharray: none; stroke-linecap: butt; stroke-linejoin: miter; stroke-miterlimit: 10; fill: rgb(199,207,226); fill-rule: nonzero; opacity: 1;" transform=" matrix(1 0 0 1 0 0) " stroke-linecap="round" />
	<path d="M 76.675 53.968 h -7.783 c -2.658 0 -4.833 -2.175 -4.833 -4.833 v 0 c 0 -2.658 2.175 -4.833 4.833 -4.833 h 7.783 c 2.658 0 4.833 2.175 4.833 4.833 v 0 C 81.508 51.793 79.333 53.968 76.675 53.968 z" style="stroke: none; stroke-width: 1; stroke-dasharray: none; stroke-linecap: butt; stroke-linejoin: miter; stroke-miterlimit: 10; fill: rgb(199,207,226); fill-rule: nonzero; opacity: 1;" transform=" matrix(1 0 0 1 0 0) " stroke-linecap="round" />
	<path d="M 2.881 40.495 c 2.777 -3.86 7.295 -6.388 12.403 -6.388 h 59.434 c 5.107 0 9.626 2.528 12.403 6.388 H 2.881 z" style="stroke: none; stroke-width: 1; stroke-dasharray: none; stroke-linecap: butt; stroke-linejoin: miter; stroke-miterlimit: 10; fill: rgb(255,139,139); fill-rule: nonzero; opacity: 1;" transform=" matrix(1 0 0 1 0 0) " stroke-linecap="round" />
	<path d="M 45 53.719 c -0.552 0 -1 -0.447 -1 -1 V 46 c 0 -0.552 0.448 -1 1 -1 s 1 0.448 1 1 v 6.719 C 46 53.271 45.552 53.719 45 53.719 z" style="stroke: none; stroke-width: 1; stroke-dasharray: none; stroke-linecap: butt; stroke-linejoin: miter; stroke-miterlimit: 10; fill: rgb(210,85,90); fill-rule: nonzero; opacity: 1;" transform=" matrix(1 0 0 1 0 0) " stroke-linecap="round" />
	<path d="M 50 53.719 c -0.553 0 -1 -0.447 -1 -1 V 46 c 0 -0.552 0.447 -1 1 -1 s 1 0.448 1 1 v 6.719 C 51 53.271 50.553 53.719 50 53.719 z" style="stroke: none; stroke-width: 1; stroke-dasharray: none; stroke-linecap: butt; stroke-linejoin: miter; stroke-miterlimit: 10; fill: rgb(210,85,90); fill-rule: nonzero; opacity: 1;" transform=" matrix(1 0 0 1 0 0) " stroke-linecap="round" />
	<path d="M 40 53.719 c -0.552 0 -1 -0.447 -1 -1 V 46 c 0 -0.552 0.448 -1 1 -1 s 1 0.448 1 1 v 6.719 C 41 53.271 40.552 53.719 40 53.719 z" style="stroke: none; stroke-width: 1; stroke-dasharray: none; stroke-linecap: butt; stroke-linejoin: miter; stroke-miterlimit: 10; fill: rgb(210,85,90); fill-rule: nonzero; opacity: 1;" transform=" matrix(1 0 0 1 0 0) " stroke-linecap="round" />
</g>
</svg>