<svg xmlns="http://www.w3.org/2000/svg" xmlns:xlink="http://www.w3.org/1999/xlink" version="1.1" height="100" viewBox="0 0 256 256" xml:space="preserve">

<defs>
</defs>
<g style="stroke: none; stroke-width: 0; stroke-dasharray: none; stroke-linecap: butt; stroke-linejoin: miter; stroke-miterlimit: 10; fill: none; fill-rule: nonzero; opacity: 1;" transform="translate(1.4065934065934016 1.4065934065934016) scale(2.81 2.81)" >
	<circle cx="25.852999999999998" cy="60.903000000000006" r="6.133" style="stroke: none; stroke-width: 1; stroke-dasharray: none; stroke-linecap: butt; stroke-linejoin: miter; stroke-miterlimit: 10; fill: rgb(248,204,29); fill-rule: nonzero; opacity: 1;" transform="  matrix(1 0 0 1 0 0) "/>
	<path d="M 25.857 86.758 c -14.257 0 -25.856 -11.599 -25.856 -25.855 c 0 -14.258 11.599 -25.857 25.856 -25.857 c 3.651 0 7.181 0.746 10.493 2.218 c 0.504 0.224 0.732 0.815 0.507 1.32 c -0.224 0.504 -0.814 0.732 -1.32 0.507 c -3.054 -1.357 -6.311 -2.045 -9.68 -2.045 c -13.154 0 -23.856 10.703 -23.856 23.857 s 10.702 23.855 23.856 23.855 s 23.856 -10.701 23.856 -23.855 c 0 -3.608 -0.785 -7.075 -2.333 -10.304 c -0.239 -0.498 -0.029 -1.096 0.469 -1.334 c 0.499 -0.242 1.096 -0.029 1.334 0.469 c 1.679 3.501 2.53 7.259 2.53 11.169 C 51.714 75.159 40.115 86.758 25.857 86.758 z" style="stroke: none; stroke-width: 1; stroke-dasharray: none; stroke-linecap: butt; stroke-linejoin: miter; stroke-miterlimit: 10; fill: rgb(0,0,0); fill-rule: nonzero; opacity: 1;" transform=" matrix(1 0 0 1 0 0) " stroke-linecap="round" />
	<path d="M 25.857 76.62 c -8.667 0 -15.719 -7.051 -15.719 -15.718 s 7.051 -15.719 15.719 -15.719 c 2.02 0 3.985 0.377 5.842 1.122 c 0.513 0.205 0.762 0.787 0.556 1.3 c -0.206 0.512 -0.787 0.764 -1.3 0.556 c -1.619 -0.648 -3.334 -0.978 -5.098 -0.978 c -7.564 0 -13.719 6.154 -13.719 13.719 S 18.293 74.62 25.857 74.62 s 13.718 -6.153 13.718 -13.718 c 0 -1.996 -0.418 -3.919 -1.244 -5.718 c -0.23 -0.502 -0.01 -1.096 0.492 -1.326 c 0.503 -0.229 1.096 -0.011 1.326 0.492 c 0.946 2.062 1.426 4.267 1.426 6.552 C 41.576 69.57 34.524 76.62 25.857 76.62 z" style="stroke: none; stroke-width: 1; stroke-dasharray: none; stroke-linecap: butt; stroke-linejoin: miter; stroke-miterlimit: 10; fill: rgb(0,0,0); fill-rule: nonzero; opacity: 1;" transform=" matrix(1 0 0 1 0 0) " stroke-linecap="round" />
	<path d="M 68.024 23.814 c -0.104 -0.352 -0.39 -0.618 -0.748 -0.695 l -2.99 -0.646 l -0.646 -2.99 c -0.077 -0.358 -0.344 -0.645 -0.695 -0.749 c -0.351 -0.104 -0.73 -0.007 -0.989 0.252 l -4.592 4.592 c -0.225 0.224 -0.329 0.542 -0.282 0.855 l 0.499 3.331 L 25.15 60.196 l 1.414 1.414 l 32.431 -32.432 l 3.33 0.498 c 0.05 0.008 0.1 0.011 0.148 0.011 c 0.264 0 0.519 -0.104 0.707 -0.293 l 4.592 -4.592 C 68.031 24.544 68.128 24.165 68.024 23.814 z M 62.123 27.624 l -2.599 -0.389 l -0.39 -2.599 l 2.938 -2.938 l 0.395 1.827 c 0.083 0.384 0.383 0.684 0.767 0.767 l 1.826 0.395 L 62.123 27.624 z" style="stroke: none; stroke-width: 1; stroke-dasharray: none; stroke-linecap: butt; stroke-linejoin: miter; stroke-miterlimit: 10; fill: rgb(0,0,0); fill-rule: nonzero; opacity: 1;" transform=" matrix(1 0 0 1 0 0) " stroke-linecap="round" />
	<path d="M 38.104 32.979 c -0.256 0 -0.512 -0.098 -0.707 -0.293 c -0.391 -0.391 -0.391 -1.023 0 -1.414 l 20.559 -20.559 c 0.391 -0.391 1.023 -0.391 1.414 0 s 0.391 1.023 0 1.414 L 38.811 32.686 C 38.616 32.881 38.36 32.979 38.104 32.979 z" style="stroke: none; stroke-width: 1; stroke-dasharray: none; stroke-linecap: butt; stroke-linejoin: miter; stroke-miterlimit: 10; fill: rgb(248,204,29); fill-rule: nonzero; opacity: 1;" transform=" matrix(1 0 0 1 0 0) " stroke-linecap="round" />
	<path d="M 54.213 50.62 c -0.256 0 -0.512 -0.098 -0.707 -0.293 c -0.391 -0.391 -0.391 -1.023 0 -1.414 l 27.401 -27.402 c 0.391 -0.391 1.023 -0.391 1.414 0 s 0.391 1.023 0 1.414 L 54.92 50.327 C 54.724 50.523 54.469 50.62 54.213 50.62 z" style="stroke: none; stroke-width: 1; stroke-dasharray: none; stroke-linecap: butt; stroke-linejoin: miter; stroke-miterlimit: 10; fill: rgb(248,204,29); fill-rule: nonzero; opacity: 1;" transform=" matrix(1 0 0 1 0 0) " stroke-linecap="round" />
	<path d="M 27.66 30.442 c -0.256 0 -0.512 -0.098 -0.707 -0.293 c -0.391 -0.391 -0.391 -1.023 0 -1.414 l 11.62 -11.62 c 0.391 -0.391 1.023 -0.391 1.414 0 s 0.391 1.023 0 1.414 l -11.62 11.62 C 28.171 30.344 27.915 30.442 27.66 30.442 z" style="stroke: none; stroke-width: 1; stroke-dasharray: none; stroke-linecap: butt; stroke-linejoin: miter; stroke-miterlimit: 10; fill: rgb(248,204,29); fill-rule: nonzero; opacity: 1;" transform=" matrix(1 0 0 1 0 0) " stroke-linecap="round" />
	<path d="M 56.573 61.241 c -0.256 0 -0.512 -0.098 -0.707 -0.293 c -0.391 -0.391 -0.391 -1.023 0 -1.414 l 9.563 -9.563 c 0.391 -0.391 1.023 -0.391 1.414 0 s 0.391 1.023 0 1.414 l -9.563 9.563 C 57.085 61.144 56.829 61.241 56.573 61.241 z" style="stroke: none; stroke-width: 1; stroke-dasharray: none; stroke-linecap: butt; stroke-linejoin: miter; stroke-miterlimit: 10; fill: rgb(248,204,29); fill-rule: nonzero; opacity: 1;" transform=" matrix(1 0 0 1 0 0) " stroke-linecap="round" />
	<path d="M 65.841 5.485 h -1.243 V 4.242 c 0 -0.552 -0.447 -1 -1 -1 s -1 0.448 -1 1 v 1.243 h -1.243 c -0.553 0 -1 0.448 -1 1 s 0.447 1 1 1 h 1.243 v 1.244 c 0 0.552 0.447 1 1 1 s 1 -0.448 1 -1 V 7.485 h 1.243 c 0.553 0 1 -0.448 1 -1 S 66.393 5.485 65.841 5.485 z" style="stroke: none; stroke-width: 1; stroke-dasharray: none; stroke-linecap: butt; stroke-linejoin: miter; stroke-miterlimit: 10; fill: rgb(248,204,29); fill-rule: nonzero; opacity: 1;" transform=" matrix(1 0 0 1 0 0) " stroke-linecap="round" />
	<path d="M 74.005 44.052 h -1.243 v -1.244 c 0 -0.552 -0.447 -1 -1 -1 s -1 0.448 -1 1 v 1.244 h -1.243 c -0.553 0 -1 0.448 -1 1 s 0.447 1 1 1 h 1.243 v 1.242 c 0 0.553 0.447 1 1 1 s 1 -0.447 1 -1 v -1.242 h 1.243 c 0.553 0 1 -0.448 1 -1 S 74.557 44.052 74.005 44.052 z" style="stroke: none; stroke-width: 1; stroke-dasharray: none; stroke-linecap: butt; stroke-linejoin: miter; stroke-miterlimit: 10; fill: rgb(248,204,29); fill-rule: nonzero; opacity: 1;" transform=" matrix(1 0 0 1 0 0) " stroke-linecap="round" />
	<path d="M 86.687 20.457 c -0.848 0 -1.696 -0.323 -2.342 -0.969 c -1.292 -1.292 -1.292 -3.394 0 -4.685 c 1.292 -1.292 3.395 -1.291 4.685 0 c 1.292 1.292 1.292 3.394 0 4.685 C 88.385 20.134 87.536 20.457 86.687 20.457 z M 86.687 15.833 c -0.35 0 -0.68 0.136 -0.928 0.384 c -0.512 0.512 -0.512 1.345 0 1.857 c 0.511 0.511 1.344 0.513 1.856 0 c 0.248 -0.248 0.385 -0.578 0.385 -0.928 c 0 -0.351 -0.137 -0.681 -0.385 -0.929 S 87.038 15.833 86.687 15.833 z" style="stroke: none; stroke-width: 1; stroke-dasharray: none; stroke-linecap: butt; stroke-linejoin: miter; stroke-miterlimit: 10; fill: rgb(248,204,29); fill-rule: nonzero; opacity: 1;" transform=" matrix(1 0 0 1 0 0) " stroke-linecap="round" />
	<path d="M 44.548 15.865 c -0.849 0 -1.697 -0.323 -2.343 -0.969 c -0.626 -0.625 -0.97 -1.458 -0.97 -2.343 c 0 -0.885 0.344 -1.717 0.97 -2.342 l 0 0 c 0 0 0 0 0 0 c 1.292 -1.291 3.394 -1.292 4.685 0 c 0.626 0.625 0.971 1.457 0.971 2.342 s -0.345 1.717 -0.971 2.343 C 46.245 15.543 45.396 15.865 44.548 15.865 z M 44.548 11.242 c -0.336 0 -0.672 0.128 -0.928 0.384 v 0 c -0.248 0.248 -0.384 0.577 -0.384 0.928 c 0 0.351 0.136 0.681 0.384 0.929 c 0.512 0.512 1.344 0.512 1.857 0 c 0.248 -0.248 0.384 -0.578 0.384 -0.929 c 0 -0.351 -0.136 -0.68 -0.384 -0.928 C 45.221 11.37 44.884 11.242 44.548 11.242 z M 42.912 10.919 h 0.01 H 42.912 z" style="stroke: none; stroke-width: 1; stroke-dasharray: none; stroke-linecap: butt; stroke-linejoin: miter; stroke-miterlimit: 10; fill: rgb(248,204,29); fill-rule: nonzero; opacity: 1;" transform=" matrix(1 0 0 1 0 0) " stroke-linecap="round" />
</g>
</svg>